<?xml version="1.0" encoding="UTF-8" standalone="no"?>
<!--
  -  Copyright ETH 2025 Zürich, Scientific IT Services
  -
  -  Licensed under the Apache License, Version 2.0 (the "License");
  -  you may not use this file except in compliance with the License.
  -  You may obtain a copy of the License at
  -
  -       http://www.apache.org/licenses/LICENSE-2.0
  -
  -  Unless required by applicable law or agreed to in writing, software
  -  distributed under the License is distributed on an "AS IS" BASIS,
  -  WITHOUT WARRANTIES OR CONDITIONS OF ANY KIND, either express or implied.
  -  See the License for the specific language governing permissions and
  -  limitations under the License.
  -
  -->

<svg
   height="24px"
   viewBox="0 0 24 24"
   width="24px"
   fill="#e8eaed"
   version="1.1"
   id="svg2"
   sodipodi:docname="folder-with-key.svg"
   inkscape:version="1.4.1-rc (832c77b156, 2025-02-28)"
   xmlns:inkscape="http://www.inkscape.org/namespaces/inkscape"
   xmlns:sodipodi="http://sodipodi.sourceforge.net/DTD/sodipodi-0.dtd"
   xmlns="http://www.w3.org/2000/svg"
   xmlns:svg="http://www.w3.org/2000/svg">
  <defs
     id="defs2" />
  <sodipodi:namedview
     id="namedview2"
     pagecolor="#ffffff"
     bordercolor="#000000"
     borderopacity="0.25"
     inkscape:showpageshadow="2"
     inkscape:pageopacity="0.0"
     inkscape:pagecheckerboard="0"
     inkscape:deskcolor="#d1d1d1"
     showguides="false"
     inkscape:zoom="16.729167"
     inkscape:cx="9.8630135"
     inkscape:cy="14.854296"
     inkscape:window-width="1854"
     inkscape:window-height="1011"
     inkscape:window-x="0"
     inkscape:window-y="0"
     inkscape:window-maximized="1"
     inkscape:current-layer="svg2" />
  <path
     d="M 0,0 H 24 V 24 H 0 Z"
     fill="none"
     id="path1"
     style="display:inline" />
  <path
     id="path2"
     style="display:inline;fill:#333333;fill-opacity:1"
     d="M 4,4 C 2.9,4 2.0097656,4.9 2.0097656,6 L 2,18 c 0,1.1 0.9,2 2,2 h 16 c 1.1,0 2,-0.9 2,-2 V 8 C 22,6.9 21.1,6 20,6 H 12 L 10,4 Z m 4.6640625,4.7310702 c 1.7412805,0 3.2224625,1.1134926 3.7695315,2.6679688 h 6.904297 v 2.667969 h -1.333985 v 2.669922 h -2.667968 v -2.669922 h -2.902344 c -0.547069,1.554476 -2.028251,2.669922 -3.7695315,2.669922 -2.2082905,0 -4.0019531,-1.795617 -4.0019531,-4.003907 0,-2.20829 1.7936626,-4.0019528 4.0019531,-4.0019528 z m 0,2.6679688 c -0.733873,0 -1.3339844,0.600112 -1.3339844,1.333984 0,0.733874 0.6001114,1.333985 1.3339844,1.333985 0.7338729,0 1.3339844,-0.600112 1.3339844,-1.333985 0,-0.733872 -0.6001115,-1.333984 -1.3339844,-1.333984 z"
     sodipodi:nodetypes="sccsssssccssccccccccssssssss" />
</svg>
