<?xml version="1.0" encoding="UTF-8" standalone="no"?>
<svg
   height="24px"
   viewBox="0 0 24 24"
   width="24px"
   fill="#e8eaed"
   version="1.1"
   id="svg2"
   sodipodi:docname="folder-with-settings.svg"
   inkscape:version="1.4.1-rc (832c77b156, 2025-02-28)"
   xmlns:inkscape="http://www.inkscape.org/namespaces/inkscape"
   xmlns:sodipodi="http://sodipodi.sourceforge.net/DTD/sodipodi-0.dtd"
   xmlns="http://www.w3.org/2000/svg"
   xmlns:svg="http://www.w3.org/2000/svg">
  <defs
     id="defs2" />
  <sodipodi:namedview
     id="namedview2"
     pagecolor="#ffffff"
     bordercolor="#000000"
     borderopacity="0.25"
     inkscape:showpageshadow="2"
     inkscape:pageopacity="0.0"
     inkscape:pagecheckerboard="0"
     inkscape:deskcolor="#d1d1d1"
     inkscape:zoom="31.708333"
     inkscape:cx="12.015769"
     inkscape:cy="12"
     inkscape:window-width="1854"
     inkscape:window-height="1011"
     inkscape:window-x="0"
     inkscape:window-y="0"
     inkscape:window-maximized="1"
     inkscape:current-layer="svg2" />
  <path
     d="M0 0h24v24H0z"
     fill="none"
     id="path1" />
  <path
     id="path2"
     d="M 4 4 C 2.9 4 2.0097656 4.9 2.0097656 6 L 2 18 C 2 19.1 2.9 20 4 20 L 20 20 C 21.1 20 22 19.1 22 18 L 22 8 C 22 6.9 21.1 6 20 6 L 12 6 L 10 4 L 4 4 z M 11.103516 8.6503906 C 11.11017 8.6497958 11.116203 8.6503906 11.123047 8.6503906 L 12.876953 8.6503906 C 12.986453 8.6503906 13.077453 8.7283904 13.095703 8.8378906 L 13.259766 9.9960938 C 13.528954 10.105594 13.769922 10.252405 13.998047 10.425781 L 15.087891 9.9863281 C 15.188266 9.9543905 15.302672 9.9875156 15.357422 10.087891 L 16.234375 11.601562 C 16.284563 11.692813 16.261817 11.816989 16.179688 11.880859 L 15.253906 12.601562 C 15.276746 12.738439 15.285156 12.883297 15.285156 13.029297 C 15.285156 13.17986 15.276063 13.322109 15.257812 13.458984 L 16.173828 14.179688 C 16.260518 14.243563 16.283266 14.358609 16.228516 14.458984 L 15.353516 15.972656 C 15.298766 16.073031 15.18436 16.108766 15.083984 16.072266 L 13.994141 15.634766 C 13.770578 15.808141 13.523094 15.954953 13.253906 16.064453 L 13.089844 17.222656 C 13.076157 17.332158 12.986453 17.410156 12.876953 17.410156 L 11.123047 17.410156 C 11.013547 17.410156 10.927107 17.332156 10.904297 17.222656 L 10.740234 16.064453 C 10.471046 15.954953 10.230078 15.808141 10.001953 15.634766 L 8.9121094 16.072266 C 8.8117342 16.104204 8.6973281 16.073031 8.6425781 15.972656 L 7.765625 14.458984 C 7.7154373 14.367734 7.7381875 14.243557 7.8203125 14.179688 L 8.7460938 13.458984 C 8.7232868 13.322109 8.7148438 13.170735 8.7148438 13.029297 C 8.7148438 12.887859 8.7330474 12.738438 8.7558594 12.601562 L 7.8300781 11.880859 C 7.7388281 11.816984 7.7206406 11.697373 7.7753906 11.601562 L 8.6464844 10.087891 C 8.7012345 9.9875156 8.8156404 9.9498281 8.9160156 9.9863281 L 10.005859 10.425781 C 10.229421 10.256968 10.476906 10.105594 10.746094 9.9960938 L 10.910156 8.8378906 C 10.927266 8.7352346 11.0037 8.659313 11.103516 8.6503906 z M 12 11.386719 C 11.096623 11.386719 10.357422 12.125921 10.357422 13.029297 C 10.357422 13.932674 11.096623 14.671875 12 14.671875 C 12.903376 14.671875 13.642578 13.932674 13.642578 13.029297 C 13.642578 12.125921 12.903376 11.386719 12 11.386719 z "
     style="fill:#333333;fill-opacity:1" />
</svg>
