<?xml version="1.0" encoding="UTF-8" standalone="no"?>
<svg
   height="24px"
   viewBox="0 0 24 24"
   width="24px"
   fill="#e8eaed"
   version="1.1"
   id="svg2"
   sodipodi:docname="folder-with-home.svg"
   inkscape:version="1.4.1-rc (832c77b156, 2025-02-28)"
   xmlns:inkscape="http://www.inkscape.org/namespaces/inkscape"
   xmlns:sodipodi="http://sodipodi.sourceforge.net/DTD/sodipodi-0.dtd"
   xmlns="http://www.w3.org/2000/svg"
   xmlns:svg="http://www.w3.org/2000/svg">
  <defs
     id="defs2" />
  <sodipodi:namedview
     id="namedview2"
     pagecolor="#ffffff"
     bordercolor="#000000"
     borderopacity="0.25"
     inkscape:showpageshadow="2"
     inkscape:pageopacity="0.0"
     inkscape:pagecheckerboard="0"
     inkscape:deskcolor="#d1d1d1"
     inkscape:zoom="22.421178"
     inkscape:cx="4.6384718"
     inkscape:cy="12.822699"
     inkscape:window-width="1854"
     inkscape:window-height="1011"
     inkscape:window-x="0"
     inkscape:window-y="0"
     inkscape:window-maximized="1"
     inkscape:current-layer="svg2" />
  <path
     d="M0 0h24v24H0z"
     fill="none"
     id="path1" />
  <path
     id="path2"
     d="M 4 4 C 2.9 4 2.0097656 4.9 2.0097656 6 L 2 18 C 2 19.1 2.9 20 4 20 L 20 20 C 21.1 20 22 19.1 22 18 L 22 8 C 22 6.9 21.1 6 20 6 L 12 6 L 10 4 L 4 4 z M 12 7.078125 L 18.966797 13.347656 L 16.876953 13.347656 L 16.876953 18.921875 L 13.392578 18.921875 L 13.392578 14.742188 L 10.607422 14.742188 L 10.607422 18.921875 L 7.1230469 18.921875 L 7.1230469 13.347656 L 5.0332031 13.347656 L 12 7.078125 z "
     style="fill:#333333;fill-opacity:1" />
</svg>
