<?xml version="1.0" encoding="UTF-8" standalone="no"?>
<svg
   height="24px"
   viewBox="0 0 24 24"
   width="24px"
   fill="#e8eaed"
   version="1.1"
   id="svg2"
   sodipodi:docname="folder-with-key-inverted.svg"
   inkscape:version="1.4.1-rc (832c77b156, 2025-02-28)"
   xmlns:inkscape="http://www.inkscape.org/namespaces/inkscape"
   xmlns:sodipodi="http://sodipodi.sourceforge.net/DTD/sodipodi-0.dtd"
   xmlns="http://www.w3.org/2000/svg"
   xmlns:svg="http://www.w3.org/2000/svg">
  <defs
     id="defs2" />
  <sodipodi:namedview
     id="namedview2"
     pagecolor="#ffffff"
     bordercolor="#000000"
     borderopacity="0.25"
     inkscape:showpageshadow="2"
     inkscape:pageopacity="0.0"
     inkscape:pagecheckerboard="0"
     inkscape:deskcolor="#d1d1d1"
     showgrid="false"
     inkscape:zoom="5.7580004"
     inkscape:cx="57.137891"
     inkscape:cy="33.431745"
     inkscape:window-width="1854"
     inkscape:window-height="1011"
     inkscape:window-x="0"
     inkscape:window-y="0"
     inkscape:window-maximized="1"
     inkscape:current-layer="svg2" />
  <path
     d="M0 0h24v24H0V0z"
     fill="none"
     id="path1" />
  <path
     d="M9.17 6l2 2H20v10H4V6h5.17M10 4H4c-1.1 0-1.99.9-1.99 2L2 18c0 1.1.9 2 2 2h16c1.1 0 2-.9 2-2V8c0-1.1-.9-2-2-2h-8l-2-2z"
     id="path2"
     style="fill:#333333;fill-opacity:1" />
  <path
     id="path2-5"
     style="fill:#333333;fill-opacity:1;stroke-width:0.611812"
     d="m 8.8945312,8.4511719 c -2.3615978,0 -4.2832031,1.9216051 -4.2832031,4.2832031 0,2.361598 1.9216053,4.283203 4.2832031,4.283203 1.6641308,0 3.1677668,-0.966679 3.8652348,-2.447266 h 1.640625 v 2.447266 h 3.669921 v -2.447266 h 1.22461 V 10.898438 H 12.759766 C 12.056181,9.4178503 10.558662,8.4511719 8.8945312,8.4511719 Z m -0.00391,2.4472661 c 1.0094918,0 1.835937,0.826445 1.835937,1.835937 0,1.009491 -0.8264452,1.835938 -1.835937,1.835937 -1.0094912,0 -1.8359375,-0.826446 -1.8359375,-1.835937 0,-1.009492 0.8264463,-1.835937 1.8359375,-1.835937 z"
     sodipodi:nodetypes="sssccccccccssssss" />
</svg>
